#!OML:ASF F:\VICON\USERDATA\INSTALL\rory3\rory3.ASF
:FULLY-SPECIFIED
:DEGREES
287
root -0.976499 17.9282 5.13923 -84.5152 88.8897 279.157
lowerback 21.4404 0.35443 -1.69513
upperback 2.3684 0.710404 4.07937
thorax -9.48821 0.586085 5.2582
lowerneck -10.5801 -1.54201 -1.70271
upperneck 18.9079 -0.775441 -3.83774
head 7.55793 -0.741421 -1.03358
rclavicle 4.96962e-015 7.55382e-014
rhumerus -50.1946 -8.23307 -73.2515
rradius 106.652
rwrist 31.134
rhand -27.5695 6.02582
rfingers 7.12502
rthumb -0.970153 -23.9517
lclavicle 4.96962e-015 7.55382e-014
lhumerus -52.3723 15.4244 64.2873
lradius 47.0212
lwrist 18.0804
lhand -15.119 50.3546
lfingers 7.12502
lthumb 11.05 80.0437
rfemur -11.8824 -2.78761 23.8011
rtibia 37.3044
rfoot -20.1657 -16.583
rtoes 18.4323
lfemur -10.7601 -8.78201 -17.5705
ltibia 34.585
lfoot -18.0534 5.00335
ltoes 17.2378
288
root -0.990069 17.9325 5.15381 -64.1988 88.6077 299.488
lowerback 21.7752 0.347024 -1.21343
upperback 2.20932 0.80331 3.96651
thorax -9.8503 0.61495 4.83425
lowerneck -10.2659 -1.49679 -1.65126
upperneck 18.8091 -0.737072 -3.82422
head 7.46906 -0.712841 -1.02997
rclavicle 1.11319e-014 2.62396e-014
rhumerus -50.4786 -8.23599 -72.9973
rradius 107.931
rwrist 30.8929
rhand -27.6663 6.27788
rfingers 7.12502
rthumb -1.06357 -23.6992
lclavicle 1.11319e-014 2.62396e-014
lhumerus -52.5142 15.1213 64.6688
lradius 46.9054
lwrist 18.2566
lhand -15.5073 50.298
lfingers 7.12502
lthumb 10.6754 80.0068
rfemur -11.8366 -2.75687 23.9444
rtibia 37.0756
rfoot -19.9075 -16.0734
rtoes 18.1117
lfemur -10.7386 -8.96726 -17.4798
ltibia 34.6759
lfoot -18.363 5.81137
ltoes 17.4986
289
root -1.00735 17.9353 5.16519 -51.6431 88.2202 312.092
lowerback 21.563 0.341158 -0.810614
upperback 2.55067 0.883608 3.88833
thorax -9.35503 0.627581 4.47773
lowerneck -10.5776 -1.42639 -1.26019
upperneck 18.5126 -0.689534 -4.04245
head 7.42401 -0.688405 -1.16241
rclavicle -5.96354e-015 -1.19271e-014
rhumerus -49.8225 -8.46631 -72.8157
rradius 108.976
rwrist 30.806
rhand -27.4244 6.45331
rfingers 7.12502
rthumb -0.829994 -23.5248
lclavicle -5.96354e-015 -1.19271e-014
lhumerus -51.8977 15.2574 65.16
lradius 46.7919
lwrist 17.955
lhand -15.4115 50.1463
lfingers 7.12502
lthumb 10.7679 79.8503
rfemur -11.8 -2.81215 24.0434
rtibia 36.9139
rfoot -19.8494 -15.2679
rtoes 19.1018
lfemur -10.7126 -9.36045 -17.4594
ltibia 34.8019
lfoot -18.6213 6.87665
ltoes 17.0857
290
root -1.02229 17.9331 5.17583 -40.304 87.8913 323.477
lowerback 21.5746 0.385182 -0.592151
upperback 2.70044 0.979614 3.76554
thorax -9.19729 0.660049 4.18352
lowerneck -10.8775 -1.35551 -0.950604
upperneck 18.5774 -0.598639 -4.27302
head 7.49716 -0.650256 -1.28443
rclavicle 2.78299e-015 -7.95139e-016
rhumerus -49.4408 -8.60993 -72.7919
rradius 109.961
rwrist 30.8915
rhand -27.1985 6.08696
rfingers 7.12502
rthumb -0.611824 -23.8919
lclavicle 2.78299e-015 -7.95139e-016
lhumerus -51.5949 15.3435 65.6143
lradius 46.6847
lwrist 17.3213
lhand -15.3691 50.1499
lfingers 7.12502
lthumb 10.8087 79.8518
rfemur -11.8084 -2.78961 24.0175
rtibia 36.8061
rfoot -19.3016 -15.1254
rtoes 17.5397
lfemur -10.684 -10.0205 -17.7465
ltibia 34.9458
lfoot -18.5724 8.51971
ltoes 14.9728
291
root -1.0364 17.9293 5.194 -31.5349 87.5095 332.201
lowerback 21.5873 0.439411 -0.637779
upperback 2.76551 1.04522 3.80915
thorax -9.13879 0.693354 4.23813
lowerneck -11.0844 -1.30344 -1.27349
upperneck 18.6292 -0.479554 -4.17116
head 7.55663 -0.610307 -1.18851
rclavicle 2.38542e-015 2.38542e-015
rhumerus -48.9957 -8.34584 -72.8071
rradius 110.925
rwrist 31.0731
rhand -26.852 5.80886
rfingers 7.12502
rthumb -0.277108 -24.1707
lclavicle 2.38542e-015 2.38542e-015
lhumerus -51.6245 15.7431 66.1421
lradius 46.7375
lwrist 16.8038
lhand -16.8687 49.1304
lfingers 7.12502
lthumb 9.36207 78.9025
rfemur -11.9428 -2.71468 24.0338
rtibia 36.7626
rfoot -18.352 -15.3716
rtoes 13.508
lfemur -10.8923 -8.57614 -17.7424
ltibia 35.1235
lfoot -17.8921 8.55128
ltoes 10.5221
292
root -1.05186 17.9384 5.20699 -26.9777 87.0358 336.741
lowerback 21.6931 0.489644 -0.542363
upperback 2.78012 1.15288 3.9491
thorax -9.19014 0.746268 4.30775
lowerneck -11.1356 -1.35281 -1.7504
upperneck 18.6697 -0.469424 -4.07177
head 7.5838 -0.629905 -1.0765
rclavicle -1.51076e-014 2.38542e-015
rhumerus -48.5301 -7.87431 -72.6383
rradius 111.633
rwrist 31.1095
rhand -26.5576 6.15689
rfingers 7.12502
rthumb 0.00720889 -23.8229
lclavicle -1.51076e-014 2.38542e-015
lhumerus -51.6582 16.2055 66.7436
lradius 46.6838
lwrist 16.4266
lhand -17.916 48.0072
lfingers 7.12502
lthumb 8.35139 77.8221
rfemur -12.005 -2.88239 24.0821
rtibia 36.6451
rfoot -17.7532 -15.0542
rtoes 10.9463
lfemur -10.9334 -9.69333 -17.7694
ltibia 35.4539
lfoot -19.0194 9.12501
ltoes 17.2381
293
root -1.07456 17.9401 5.21654 -24.7839 86.4841 339.002
lowerback 22.0741 0.542853 -0.428687
upperback 2.75719 1.28215 4.13174
thorax -9.43453 0.813387 4.41128
lowerneck -11.1405 -1.36739 -2.14595
upperneck 18.5855 -0.412356 -4.0893
head 7.56153 -0.630382 -1.01029
rclavicle -1.11319e-014 -2.54444e-014
rhumerus -48.0562 -7.21655 -72.3943
rradius 112.226
rwrist 31.0987
rhand -26.3947 6.00294
rfingers 7.12502
rthumb 0.164517 -23.9767
lclavicle -1.11319e-014 -2.54444e-014
lhumerus -51.7635 16.3592 67.5399
lradius 46.7873
lwrist 16.1612
lhand -14.3456 49.7272
lfingers 7.12502
lthumb 11.7958 79.375
rfemur -11.9907 -2.81034 24.1954
rtibia 36.4807
rfoot -17.8072 -14.4536
rtoes 11.92
lfemur -11.1075 -9.18346 -17.7592
ltibia 35.9104
lfoot -18.982 9.9138
ltoes 15.7686
294
root -1.10295 17.9341 5.18805 -31.7829 85.487 332.066
lowerback 22.5938 0.301179 1.08546
upperback 2.75422 1.36703 4.19373
thorax -9.69518 0.804862 3.58317
lowerneck -11.3626 -1.20014 -1.96384
upperneck 18.6113 -0.164413 -4.32257
head 7.61188 -0.525187 -1.09506
rclavicle 5.76476e-015 -1.98785e-014
rhumerus -47.4846 -6.59643 -72.5324
rradius 112.72
rwrist 31.1899
rhand -26.0529 5.92218
rfingers 7.12502
rthumb 0.494675 -24.057
lclavicle 5.76476e-015 -1.98785e-014
lhumerus -51.7257 16.2089 68.0542
lradius 46.924
lwrist 15.7561
lhand -14.2749 49.7889
lfingers 7.12502
lthumb 11.8641 79.4328
rfemur -11.8837 -2.72927 25.013
rtibia 36.1422
rfoot -17.5986 -13.8075
rtoes 12.2151
lfemur -11.3426 -9.54125 -17.1805
ltibia 36.5671
lfoot -19.3291 11.5807
ltoes 14.7678
295
root -1.12221 17.9304 5.18511 -34.0133 84.7111 329.891
lowerback 22.7793 0.125787 2.03373
upperback 2.86048 1.38501 4.19501
thorax -9.65692 0.780911 3.03171
lowerneck -11.3548 -1.03127 -1.5824
upperneck 18.3553 0.0323598 -4.61968
head 7.52729 -0.430599 -1.23434
rclavicle 9.34288e-015 1.43125e-014
rhumerus -46.7143 -6.06677 -72.7387
rradius 112.862
rwrist 31.1665
rhand -25.8579 6.54517
rfingers 7.12502
rthumb 0.682979 -23.4335
lclavicle 9.34288e-015 1.43125e-014
lhumerus -51.5497 16.1864 68.496
lradius 47.011
lwrist 15.3601
lhand -13.8417 49.7478
lfingers 7.12502
lthumb 12.2817 79.3672
rfemur -11.7599 -2.68634 25.5866
rtibia 35.8198
rfoot -17.2043 -13.3882
rtoes 11.63
lfemur -11.6009 -9.18989 -16.7093
ltibia 37.2249
lfoot -19.3573 12.4582
ltoes 12.699
296
root -1.13382 17.9302 5.21845 -36.9052 84.0204 327.224
lowerback 23.0568 0.0398436 2.50811
upperback 2.97576 1.4381 4.40566
thorax -9.67517 0.799282 2.97663
lowerneck -11.411 -0.88521 -1.51027
upperneck 18.3564 0.251343 -4.77259
head 7.54188 -0.336021 -1.27553
rclavicle -2.5842e-015 -3.02153e-014
rhumerus -46.0251 -5.30319 -72.9287
rradius 112.799
rwrist 31.2666
rhand -26.0812 6.42474
rfingers 7.12502
rthumb 0.467364 -23.5545
lclavicle -2.5842e-015 -3.02153e-014
lhumerus -51.5119 16.1648 69.0913
lradius 47.1021
lwrist 15.0172
lhand -13.8138 49.2644
lfingers 7.12502
lthumb 12.3087 78.8821
rfemur -11.3195 -2.52431 26.3623
rtibia 35.3917
rfoot -16.9544 -13.2976
rtoes 11.8739
lfemur -11.6674 -9.03799 -15.9398
ltibia 37.9963
lfoot -19.9397 12.1093
ltoes 15.0535
297
root -1.14181 17.9287 5.27529 -35.9859 83.7134 328.23
lowerback 23.1091 0.0961303 2.21672
upperback 3.02493 1.45078 4.49034
thorax -9.65783 0.819044 3.23432
lowerneck -11.5004 -0.767314 -1.47915
upperneck 18.5091 0.416964 -4.75913
head 7.61118 -0.257113 -1.26203
rclavicle -6.16232e-015 -2.46493e-014
rhumerus -45.4481 -4.7338 -73.2617
rradius 112.521
rwrist 31.6192
rhand -26.5418 6.02976
rfingers 7.12502
rthumb 0.0224741 -23.95
lclavicle -6.16232e-015 -2.46493e-014
lhumerus -51.3884 15.8353 69.6699
lradius 47.1552
lwrist 14.7378
lhand -14.5604 48.8795
lfingers 7.12502
lthumb 11.5887 78.5391
rfemur -11.1113 -2.33989 26.6958
rtibia 35.217
rfoot -16.8159 -13.3441
rtoes 10.845
lfemur -11.8177 -8.44857 -15.6619
ltibia 38.5506
lfoot -20.0908 11.8517
ltoes 14.9498
298
root -1.15757 17.9269 5.28129 -37.434 82.9175 326.952
lowerback 23.5747 0.0822284 3.02558
upperback 3.00559 1.68041 4.55591
thorax -9.91998 0.900751 2.77359
lowerneck -11.4159 -0.74994 -1.33595
upperneck 18.5493 0.439539 -4.88214
head 7.60955 -0.24628 -1.32382
rclavicle -3.18055e-015 6.36111e-015
rhumerus -45.1208 -4.49138 -73.6214
rradius 112.057
rwrist 31.8399
rhand -26.9054 6.52894
rfingers 7.12502
rthumb -0.328683 -23.4505
lclavicle -3.18055e-015 6.36111e-015
lhumerus -51.2075 15.3024 70.3153
lradius 47.1977
lwrist 14.4587
lhand -14.5078 48.8063
lfingers 7.12502
lthumb 11.6394 78.463
rfemur -11.064 -2.54426 27.3091
rtibia 35.3731
rfoot -16.6877 -12.8503
rtoes 9.41788
lfemur -11.8349 -7.82407 -15.0693
ltibia 38.9392
lfoot -20.6632 11.5378
ltoes 16.2002
